<?xml version="1.0" encoding="UTF-8"?>
<svg width="108px" height="24px" viewBox="0 0 108 24" version="1.1" xmlns="http://www.w3.org/2000/svg" xmlns:xlink="http://www.w3.org/1999/xlink">
    <!-- Generator: sketchtool 50.2 (55047) - http://www.bohemiancoding.com/sketch -->
    <title>hbo-go-logo</title>
    <desc>Created with sketchtool.</desc>
    <defs>
        <polygon id="path-1" points="0 0.0116363636 107.991455 0.0116363636 107.991455 23.9890909 0 23.9890909"></polygon>
    </defs>
    <g id="Symbols" stroke="none" stroke-width="1" fill="none" fill-rule="evenodd">
        <g id="hbo-go-logo">
            <g id="main">
                <mask id="mask-2" fill="white">
                    <use xlink:href="#path-1"></use>
                </mask>
                <g id="clip"></g>
                <path d="M95.998,17.9276364 C92.7278182,17.9276364 90.0752727,15.2769091 90.0752727,12.0056364 C90.0752727,8.73363636 92.7278182,6.08272727 95.998,6.08272727 C99.2694545,6.08272727 101.920364,8.73363636 101.920364,12.0056364 C101.920364,15.2769091 99.2694545,17.9276364 95.998,17.9276364 Z M95.9969091,0.0116363636 C89.8501818,0.0116363636 84.7863636,4.63636364 84.0883636,10.5965455 L71.4841818,10.5965455 L71.4841818,15.2470909 L78.2554545,15.2470909 C77.7083636,17.5054545 75.7938182,18.9070909 73.2254545,18.9070909 C69.2294545,18.9070909 66.594,16.066 66.594,11.8250909 C66.594,8.16727273 69.2609091,5.43 72.8163636,5.43 C74.9721818,5.43 76.7869091,6.49145455 77.8109091,8.408 L84.3416364,8.408 C83.0436364,3.72127273 78.1872727,0.302181818 72.9905455,0.302181818 C66.0821818,0.302181818 60.7807273,5.43 60.7807273,12.0650909 C60.7807273,18.7345455 66.0821818,24 72.8525455,24 C78.4854545,24 83.014,20.5338182 84.5216364,15.4998182 C86.0181818,20.4190909 90.5887273,24 95.9969091,24 C102.621636,24 107.991455,18.6301818 107.991455,12.0056364 C107.991455,5.38072727 102.621636,0.0116363636 95.9969091,0.0116363636 Z" id="go" fill="#B2B6B6" mask="url(#mask-2)"></path>
                <path d="M46.1530909,16.6767273 C48.6812727,16.6767273 50.818,14.5927273 50.818,11.9865455 C50.818,9.37981818 48.6812727,7.32090909 46.1530909,7.32090909 C43.5469091,7.32090909 41.4629091,9.37981818 41.4629091,11.9865455 C41.4629091,14.5927273 43.5469091,16.6767273 46.1530909,16.6767273 Z M40.212,11.9865455 C40.212,8.70272727 42.8696364,6.04381818 46.1530909,6.04381818 C49.4365455,6.04381818 52.0952727,8.70272727 52.0952727,11.9865455 C52.0952727,15.2969091 49.4365455,17.9536364 46.1530909,17.9536364 C42.8696364,17.9536364 40.212,15.2969091 40.212,11.9865455 Z M31.8727273,11.9865455 C32.6285455,11.9343636 33.8525455,11.0743636 34.3218182,10.5529091 C34.1401818,11.1781818 34.1401818,13.1594545 34.3218182,13.7852727 C33.8003636,13.0289091 32.6285455,12.1172727 31.8727273,11.9865455 Z M27.5985455,5.70509091 C28.5370909,5.70509091 29.2929091,6.61854545 29.2929091,7.65963636 C29.2929091,8.70272727 28.5370909,9.61527273 27.5985455,9.61527273 L24.3672727,9.61527273 L24.3672727,5.70509091 L27.5985455,5.70509091 Z M27.5985455,14.4889091 C28.5370909,14.4889091 29.2929091,15.4012727 29.2929091,16.4436364 C29.2929091,17.5363636 28.5370909,18.4485455 27.5985455,18.4485455 L24.3672727,18.4485455 L24.3672727,14.4889091 L27.5985455,14.4889091 Z M46.1530909,24 C52.6689091,24 57.9849091,18.5809091 57.9849091,11.9865455 C57.9849091,5.28781818 52.6689091,0.103272727 46.1530909,0.103272727 C39.5598182,0.103272727 36.2241818,4.89890909 35.4169091,6.85181818 C35.4169091,3.96018182 32.5241818,0.493454545 29.1623636,0.493454545 L18.2949091,0.493454545 L18.2949091,23.8956364 L28.4058182,23.8956364 C32.5241818,23.8956364 35.4169091,20.378 35.4169091,17.3036364 C36.328,19.2049091 39.5598182,24 46.1530909,24 Z M16.9912727,23.8956364 L10.6336364,23.8956364 L10.6336364,14.8270909 L6.51581818,14.8270909 L6.51581818,23.8956364 L0,23.8956364 L0,0.493454545 L6.51581818,0.493454545 L6.51581818,9.22345455 L10.6336364,9.22345455 L10.6336364,0.493454545 L16.9912727,0.493454545 L16.9912727,23.8956364 Z" id="hbo" fill="#20211F" mask="url(#mask-2)"></path>
            </g>
            <path d="M95.978,16.6836364 C98.5061818,16.6836364 100.642909,14.5996364 100.642909,11.9934545 C100.642909,9.38672727 98.5061818,7.32781818 95.978,7.32781818 C93.3718182,7.32781818 91.2878182,9.38672727 91.2878182,11.9934545 C91.2878182,14.5996364 93.3718182,16.6836364 95.978,16.6836364" id="circle" fill="#3AA6D2"></path>
            <path d="M106.327818,1.88127273 C106.458,1.88127273 106.531273,1.81345455 106.531273,1.71727273 C106.531273,1.60963636 106.458,1.55327273 106.327818,1.55327273 L106.084545,1.55327273 L106.084545,1.88127273 L106.327818,1.88127273 Z M105.892182,1.38345455 L106.344727,1.38345455 C106.565455,1.38345455 106.729455,1.49090909 106.729455,1.70018182 C106.729455,1.86418182 106.633273,1.966 106.497455,2.00581818 L106.763273,2.38472727 L106.531273,2.38472727 L106.294,2.03963636 L106.084545,2.03963636 L106.084545,2.38472727 L105.892182,2.38472727 L105.892182,1.38345455 Z M107.148,1.904 L107.148,1.89836364 C107.148,1.41745455 106.774545,1.02145455 106.276909,1.02145455 C105.784727,1.02145455 105.405818,1.42309091 105.405818,1.904 L105.405818,1.90963636 C105.405818,2.39036364 105.779091,2.78618182 106.276909,2.78618182 C106.768909,2.78618182 107.148,2.38472727 107.148,1.904 Z M105.292727,1.90963636 L105.292727,1.904 C105.292727,1.36654545 105.728364,0.914 106.276909,0.914 C106.831273,0.914 107.261273,1.36090909 107.261273,1.89836364 L107.261273,1.904 C107.261273,2.44127273 106.825636,2.89363636 106.276909,2.89363636 C105.722545,2.89363636 105.292727,2.44690909 105.292727,1.90963636 Z" id="Fill-6" fill="#B2B6B6"></path>
        </g>
    </g>
</svg>