<?xml version="1.0" encoding="UTF-8"?>
<svg width="20px" height="20px" viewBox="0 0 20 20" version="1.1" xmlns="http://www.w3.org/2000/svg" xmlns:xlink="http://www.w3.org/1999/xlink">
    <!-- Generator: sketchtool 50.2 (55047) - http://www.bohemiancoding.com/sketch -->
    <title>icon-profile-20x20</title>
    <desc>Created with sketchtool.</desc>
    <defs></defs>
    <g id="Symbols" stroke="none" stroke-width="1" fill="none" fill-rule="evenodd">
        <g id="icon-profile-20x20">
            <rect id="bg" fill="#D8D8D8" opacity="0" x="0" y="0" width="20" height="20"></rect>
            <path d="M3,18 C3,18.5522847 2.55228475,19 2,19 C1.44771525,19 1,18.5522847 1,18 C1,14.6862915 3.6862915,12 7,12 L13,12 C16.3137085,12 19,14.6862915 19,18 C19,18.5522847 18.5522847,19 18,19 C17.4477153,19 17,18.5522847 17,18 C17,15.790861 15.209139,14 13,14 L7,14 C4.790861,14 3,15.790861 3,18 Z" id="Combined-Shape" fill="#0F0F0F"></path>
            <path d="M10,11 C7.23857625,11 5,8.76142375 5,6 C5,3.23857625 7.23857625,1 10,1 C12.7614237,1 15,3.23857625 15,6 C15,8.76142375 12.7614237,11 10,11 Z M10,9 C11.6568542,9 13,7.65685425 13,6 C13,4.34314575 11.6568542,3 10,3 C8.34314575,3 7,4.34314575 7,6 C7,7.65685425 8.34314575,9 10,9 Z" id="Combined-Shape" fill="#0F0F0F"></path>
        </g>
    </g>
</svg>