<?xml version="1.0" encoding="UTF-8"?>
<svg width="20px" height="20px" viewBox="0 0 20 20" version="1.1" xmlns="http://www.w3.org/2000/svg" xmlns:xlink="http://www.w3.org/1999/xlink">
    <!-- Generator: sketchtool 50.2 (55047) - http://www.bohemiancoding.com/sketch -->
    <title>icon-search-active-20x20</title>
    <desc>Created with sketchtool.</desc>
    <defs></defs>
    <g id="Symbols" stroke="none" stroke-width="1" fill="none" fill-rule="evenodd">
        <g id="icon-search-active-20x20">
            <rect id="bg" fill="#D8D8D8" opacity="0" x="0" y="0" width="20" height="20"></rect>
            <path d="M8,15 C4.13400675,15 1,11.8659932 1,8 C1,4.13400675 4.13400675,1 8,1 C11.8659932,1 15,4.13400675 15,8 C15,11.8659932 11.8659932,15 8,15 Z M8,13 C10.7614237,13 13,10.7614237 13,8 C13,5.23857625 10.7614237,3 8,3 C5.23857625,3 3,5.23857625 3,8 C3,10.7614237 5.23857625,13 8,13 Z" id="Combined-Shape" fill="#3399CC"></path>
            <path d="M12.2928932,12.2928932 C12.6834175,11.9023689 13.3165825,11.9023689 13.7071068,12.2928932 L18.6568542,17.2426407 C19.0473785,17.633165 19.0473785,18.26633 18.6568542,18.6568542 C18.26633,19.0473785 17.633165,19.0473785 17.2426407,18.6568542 L12.2928932,13.7071068 C11.9023689,13.3165825 11.9023689,12.6834175 12.2928932,12.2928932 Z" id="Rectangle" fill="#3399CC"></path>
        </g>
    </g>
</svg>