<?xml version="1.0" encoding="UTF-8"?>
<svg width="20px" height="20px" viewBox="0 0 20 20" version="1.1" xmlns="http://www.w3.org/2000/svg" xmlns:xlink="http://www.w3.org/1999/xlink">
    <!-- Generator: sketchtool 50.2 (55047) - http://www.bohemiancoding.com/sketch -->
    <title>icon-browse-20x20</title>
    <desc>Created with sketchtool.</desc>
    <defs></defs>
    <g id="Symbols" stroke="none" stroke-width="1" fill="none" fill-rule="evenodd">
        <g id="icon-browse-20x20">
            <rect id="bg" fill="#D8D8D8" opacity="0" x="0" y="0" width="20" height="20"></rect>
            <path d="M2,1 L8,1 C8.55228475,1 9,1.44771525 9,2 L9,8 C9,8.55228475 8.55228475,9 8,9 L2,9 C1.44771525,9 1,8.55228475 1,8 L1,2 C1,1.44771525 1.44771525,1 2,1 Z M3,3 L3,7 L7,7 L7,3 L3,3 Z" id="Combined-Shape" fill="#0F0F0F"></path>
            <path d="M12,1 L18,1 C18.5522847,1 19,1.44771525 19,2 L19,8 C19,8.55228475 18.5522847,9 18,9 L12,9 C11.4477153,9 11,8.55228475 11,8 L11,2 C11,1.44771525 11.4477153,1 12,1 Z M13,3 L13,7 L17,7 L17,3 L13,3 Z" id="Combined-Shape" fill="#0F0F0F"></path>
            <path d="M2,11 L8,11 C8.55228475,11 9,11.4477153 9,12 L9,18 C9,18.5522847 8.55228475,19 8,19 L2,19 C1.44771525,19 1,18.5522847 1,18 L1,12 C1,11.4477153 1.44771525,11 2,11 Z M3,13 L3,17 L7,17 L7,13 L3,13 Z" id="Combined-Shape" fill="#0F0F0F"></path>
            <path d="M12,11 L18,11 C18.5522847,11 19,11.4477153 19,12 L19,18 C19,18.5522847 18.5522847,19 18,19 L12,19 C11.4477153,19 11,18.5522847 11,18 L11,12 C11,11.4477153 11.4477153,11 12,11 Z M13,13 L13,17 L17,17 L17,13 L13,13 Z" id="Combined-Shape" fill="#0F0F0F"></path>
        </g>
    </g>
</svg>